<?xml version="1.0" encoding="UTF-8"?>
<svg id="Layer_2" data-name="Layer 2" xmlns="http://www.w3.org/2000/svg" viewBox="0 0 160.69 91.82">
  <defs>
    <style>
      .cls-1 {
      fill: currentColor;
      fill-rule: evenodd;
      stroke-width: 0px;
      }
    </style>
  </defs>
  <g id="Layer_1-2" data-name="Layer 1">
    <g>
      <path class="cls-1"
        d="M36.13,63.03h0c0,.38-.03.74-.08,1.1-.04.36-.11.72-.19,1.08-.31,1.39-.91,2.73-1.78,4.01.1-.07.2-.15.3-.22.4-.3.79-.62,1.15-.95h0s.14-.13.14-.13l.13-.13.13-.13.13-.13.12-.13.12-.13.12-.14h0l.12-.14.11-.13.11-.14.11-.14h0l.1-.14.09-.15.1-.15h0l.09-.15h0l.08-.15h0s.08-.16.08-.16l.07-.16.07-.17h0l.06-.16.06-.17h0l.05-.18h0l.04-.17.04-.18.03-.17h0l.03-.2.02-.19.02-.2h0v-.19s.02-.19.02-.19v-.38s-.02-.19-.02-.19h0l-.02-.2-.02-.19h0l-.03-.2h0l-.03-.19h0l-.03-.19-.04-.2h0l-.04-.19h0l-.04-.2h0l-.04-.19h0l-.04-.2h0l-.04-.2-.04-.2-.05-.2-.04-.2-.05-.2h0s-.04-.2-.04-.2l-.04-.2h0s-.04-.2-.04-.2l-.04-.2h0s-.04-.21-.04-.21h0s-.04-.21-.04-.21h0s-.04-.21-.04-.21h0s-.04-.21-.04-.21h0s-.03-.21-.03-.21h0s-.02-.13-.02-.13h0s-.01-.13-.01-.13h0s-.01-.13-.01-.13h0s-.01-.14-.01-.14h0s0-.14,0-.14h0s0-.14,0-.14h0s0-.14,0-.14h0s0-.14,0-.14h0s0-.14,0-.14h0v-.14h0s0-.15,0-.15h0s0-.14,0-.14h0s0-.15,0-.15h0s0-.15,0-.15h0s.01-.15.01-.15h0s.01-.15.01-.15h0s.02-.15.02-.15h0s.02-.14.02-.14h0s.02-.15.02-.15h0s.03-.14.03-.14h0s.03-.15.03-.15h0s.03-.14.03-.14h0s.03-.14.03-.14h0s.04-.14.04-.14h0s.04-.14.04-.14h0s.04-.14.04-.14h0s.04-.12.04-.12l-.08.02-.09.02h0l-.09.02-.09.02h0s-.09.02-.09.02h0s-.09.02-.09.02h0s-.08.02-.08.02l-.08.02h0s-.09.03-.09.03h0l-.08.03-.08.03-.08.03-.08.03h0s-.08.03-.08.03h0s-.08.04-.08.04l-.08.03-.09.04-.08.04-.08.04-.08.04-.08.04-.09.05-.08.05-.08.05-.08.05h0l-.1.07h0l-.09.06-.09.07-.09.07h0l-.08.07-.08.07-.08.07-.08.07h0l-.08.08-.07.08-.08.08-.08.09h0s-.06.07-.06.07c.64,1.19,1.12,2.36,1.44,3.5.34,1.18.5,2.34.49,3.47h0v.12Z" />
      <path class="cls-1"
        d="M28.04,46.38l.25-4.99c-1.09.15-2.15.4-3.17.75-1.09.37-2.14.86-3.12,1.43-5.04,2.96-8.44,8.45-8.44,14.71h0s0,0,0,0c0,2.56.57,4.98,1.59,7.17.25.54.52,1.05.82,1.55,1.53,2.55,3.7,4.67,6.29,6.13.32-.11.63-.23.93-.35.32-.13.63-.28.92-.43h0s0,0,0,0c.11-.06.22-.12.33-.19.11-.07.21-.13.32-.2.43-.29.81-.6,1.13-.95-.75-.25-1.52-.52-2.24-.85-.83-.38-1.61-.82-2.25-1.36h0c-.12-.1-.23-.2-.34-.31-.11-.11-.22-.22-.31-.33-.52-.58-.91-1.24-1.16-2-.18-.54-.27-1.09-.32-1.65-.04-.55-.04-1.1,0-1.66v-.02c.02-.41.05-.79.08-1.17.09-1.14.17-2.29,0-3.42h0c-.03-.2-.07-.39-.11-.59-.04-.19-.1-.38-.16-.57-.3-.97-.77-1.86-1.25-2.52l-.27-.37.46.03h.02c.28.02.57.05.85.08.29.04.57.08.84.14h0c1.23.26,2.38.74,3.24,1.53-.02-.16-.04-.32-.06-.48-.14-.9-.44-1.83-.97-2.51l-.3-.41.5.07h0c.23.04.42.06.6.09.94.13,1.88.26,2.78.62.47.19.89.42,1.27.69.29.21.57.44.83.69l.42-8.37Z" />
      <path class="cls-1"
        d="M37.94,75.47l.66-1.17-.09-.03h0l-.09-.03h0l-.09-.03h0l-.09-.03h0l-.09-.03-.09-.03h0l-.09-.03h0l-.09-.03h0s-.09-.03-.09-.03h0l-.09-.03-.09-.03h0s-.09-.04-.09-.04h0s-.09-.04-.09-.04h0s-.09-.04-.09-.04h0l-.09-.04h0s-.09-.04-.09-.04h0l-.09-.04h0l-.09-.04h0s-.09-.04-.09-.04h0l-.09-.04h0s-.09-.04-.09-.04h0l-.09-.04h0s-.09-.04-.09-.04h0s-.09-.05-.09-.05h0l-.09-.05h0s-.09-.05-.09-.05h0s-.18-.1-.18-.1h0s-.18-.11-.18-.11h0s-.17-.11-.17-.11h0s-.17-.11-.17-.11h0s-.16-.12-.16-.12h0s-.16-.12-.16-.12h0s-.16-.13-.16-.13h0s-.15-.13-.15-.13h0s-.15-.13-.15-.13h0s-.14-.14-.14-.14h0s-.14-.14-.14-.14h0s-.14-.15-.14-.15h0s-.14-.15-.14-.15h0s-.13-.16-.13-.16h0s-.07-.08-.07-.08h-.04s-.14.06-.14.06l-.14.05-.14.05-.14.05-.12.05h0s-.12.06-.12.06h0l-.11.05-.11.06-.11.06-.1.06h0l-.11.07-.1.06-.09.06-.1.07-.09.06h0l-.09.07-.08.07h0l-.09.07-.08.07-.08.07-.08.07-.08.08-.08.08-.09.08h0s-.09.08-.09.08h0s-.09.08-.09.08h0s-.09.08-.09.08h0s-.09.08-.09.08h0s-.09.08-.09.08h0s-.27.23-.27.23l-.15.13-.14-.14-.24-.24-.07-.08-.07-.07h0s-.07-.08-.07-.08l-.07-.08-.08-.07-.08-.08-.08-.08h0s-.08-.07-.08-.07h0s-.08-.07-.08-.07h0s-.09-.07-.09-.07l-.08-.07-.09-.07-.09-.07h0l-.08-.06h0s0,0,0,0h0s-.04-.03-.04-.03l-.04-.03c-.08-.05-.15-.1-.21-.14h0s-.11-.07-.11-.07l-.1-.06-.12-.06h0l-.11-.06h0l-.12-.06h0s-.12-.06-.12-.06l-.12-.06-.13-.05h0l-.14-.06-.14-.05-.14-.05h0s-.16-.05-.16-.05h0s-.03-.01-.03-.01l-.07.08h0s-.13.16-.13.16h0s-.14.15-.14.15h0s-.14.15-.14.15h0s-.14.14-.14.14h0s-.15.14-.15.14h0s-.15.14-.15.14h0s-.15.13-.15.13h0s-.16.13-.16.13h0s-.16.12-.16.12h0s-.16.12-.16.12h0s-.17.12-.17.12h0s-.17.11-.17.11h0s-.18.11-.18.11h0s-.18.1-.18.1h0s-.09.05-.09.05h0s-.09.05-.09.05h0l-.09.04h0s-.09.04-.09.04h0s-.09.04-.09.04h0l-.09.04h0s-.09.04-.09.04h0s-.09.04-.09.04h0s-.09.04-.09.04h0l-.09.04h0l-.09.04h0s-.09.04-.09.04h0l-.09.04h0s-.09.04-.09.04h0s-.09.04-.09.04h0s-.08.03-.08.03h0l-.09.03h0s-.09.03-.09.03h0l-.09.03-.09.03h0l-.09.03h0l-.09.03h0l-.09.03h0l-.09.03h0l-.09.03h0l-.09.03.66,1.17h14.66Z" />
      <path class="cls-1"
        d="M27.02,55.94l-.06-.07-.07-.08h0l-.08-.08-.08-.08-.07-.07-.08-.08-.07-.07-.08-.07h0l-.08-.07-.09-.07-.09-.07-.09-.06-.1-.06-.09-.05h0l-.09-.05-.08-.05-.09-.05-.08-.04-.08-.04-.08-.04-.08-.04-.08-.04-.08-.04-.09-.04h0s-.08-.03-.08-.03h0l-.08-.03-.08-.03-.08-.03-.08-.03h0l-.09-.03h0s-.08-.02-.08-.02h0l-.08-.02h0s-.09-.02-.09-.02h0s-.08-.02-.08-.02h0s-.09-.02-.09-.02l-.09-.02h0l-.09-.02h0l-.08-.02.04.11h0s.04.14.04.14h0s.04.14.04.14h0s.04.14.04.14h0s.04.14.04.14h0s.03.14.03.14h0s.03.14.03.14h0s.03.14.03.14h0s.02.15.02.15h0s.02.15.02.15h0s.02.15.02.15h0s.02.15.02.15h0s.01.15.01.15h0s0,.15,0,.15h0s0,.15,0,.15h0s0,.14,0,.14h0s0,.15,0,.15h0v.14h0v.14h0s0,.14,0,.14h0s0,.14,0,.14h0s0,.14,0,.14h0s0,.14,0,.14h0s-.01.14-.01.14h0s-.01.13-.01.13h0s-.02.13-.02.13h0s-.02.13-.02.13h0s-.03.21-.03.21h0s-.03.21-.03.21h0s-.04.21-.04.21h0s-.04.21-.04.21h0s-.04.21-.04.21h0s-.04.2-.04.2h0s-.04.2-.04.2h0l-.04.2h0s-.05.2-.05.2l-.04.2-.05.2-.04.2h0l-.04.2-.04.2h0l-.04.2h0l-.04.2h0l-.04.2h0l-.04.19-.03.19-.03.2h0l-.03.19h0l-.02.2h0l-.02.19h0l-.02.2v.19h0v.19s0,.19,0,.19v.19s.02.19.02.19h0l.02.2.02.19.03.2.03.18h0l.04.18.04.17h0l.05.18.06.17.06.16.07.17.07.16.07.15.09.16.09.15.09.15.1.15h0l.1.14h0l.11.15.11.14.11.13.12.14h0l.12.14.12.13.13.13.13.13.13.13.14.13c.5.46,1.03.88,1.58,1.29-.21-.32-.41-.63-.59-.95-.95-1.69-1.43-3.48-1.45-5.35,0-1.13.15-2.28.49-3.46.32-1.14.8-2.3,1.45-3.5" />
      <path class="cls-1"
        d="M29.13,52.66c.31-.41.63-.82.98-1.24h0s.33-.39.33-.39l.16-.19.16.19.33.38h0c.08.1.15.19.21.26.07.09.14.17.2.25.18.23.37.47.54.7l-.85-15.14-.6-.85-.61.86-.87,15.16Z" />
      <polygon class="cls-1"
        points="25.44 69.46 25.59 69.52 25.59 69.52 25.61 69.52 25.45 69.4 25.44 69.4 25.22 69.23 25.22 69.23 25 69.05 25 69.05 24.78 68.87 24.78 68.87 24.57 68.68 24.56 68.68 24.36 68.5 24.35 68.49 24.15 68.3 24.15 68.29 23.95 68.1 23.95 68.09 23.76 67.89 23.75 67.88 23.57 67.67 23.57 67.67 23.39 67.45 23.39 67.44 23.22 67.22 23.22 67.21 23.06 66.97 23.05 66.97 22.91 66.73 22.9 66.72 22.76 66.47 22.76 66.46 22.63 66.2 22.63 66.19 22.51 65.92 22.51 65.91 22.4 65.63 22.39 65.62 22.3 65.33 22.3 65.32 22.22 65.02 22.21 65.01 22.14 64.69 22.14 64.68 22.09 64.36 22.08 64.35 22.04 64.01 22.04 64 22.03 63.82 22.03 63.81 22.02 63.63 22.02 63.62 22.01 63.43 22.01 63.43 22.01 63.23 22.01 63.23 22.02 63.03 22.02 63.03 22.03 62.83 22.03 62.83 22.05 62.63 22.05 62.62 22.07 62.42 22.07 62.42 22.09 62.22 22.09 62.21 22.12 62.01 22.12 62.01 22.15 61.8 22.15 61.8 22.18 61.59 22.18 61.59 22.22 61.38 22.22 61.38 22.25 61.17 22.26 61.17 22.29 60.96 22.29 60.96 22.33 60.75 22.33 60.75 22.38 60.54 22.42 60.33 22.42 60.33 22.46 60.12 22.46 60.12 22.5 59.91 22.55 59.7 22.59 59.5 22.63 59.29 22.63 59.29 22.67 59.08 22.67 59.08 22.71 58.88 22.75 58.68 22.75 58.68 22.79 58.49 22.79 58.49 22.82 58.29 22.85 58.1 22.85 58.1 22.88 57.91 22.88 57.91 22.9 57.72 22.9 57.72 22.9 57.72 22.84 57.65 22.74 57.55 22.63 57.45 22.52 57.34 22.52 57.34 22.4 57.23 22.29 57.13 22.17 57.02 22.05 56.92 22.04 56.92 21.92 56.82 21.92 56.82 21.8 56.73 21.68 56.63 21.68 56.63 21.56 56.55 21.56 56.55 21.46 56.48 21.46 56.48 21.34 56.41 21.24 56.35 21.11 56.28 20.98 56.21 20.98 56.21 20.84 56.15 20.71 56.09 20.58 56.04 20.44 55.98 20.44 55.98 20.3 55.93 20.3 55.93 20.17 55.89 20.17 55.89 20.03 55.85 19.89 55.81 19.89 55.81 19.88 55.81 19.91 55.85 19.91 55.86 19.98 56 19.98 56 20.05 56.15 20.06 56.16 20.12 56.3 20.12 56.31 20.18 56.46 20.18 56.46 20.24 56.61 20.24 56.62 20.29 56.77 20.29 56.77 20.34 56.93 20.34 56.93 20.39 57.09 20.39 57.09 20.43 57.25 20.43 57.25 20.47 57.41 20.47 57.41 20.51 57.57 20.51 57.57 20.54 57.73 20.54 57.73 20.57 57.89 20.57 57.9 20.6 58.06 20.6 58.06 20.62 58.22 20.62 58.22 20.64 58.38 20.64 58.38 20.66 58.54 20.66 58.55 20.67 58.71 20.67 58.71 20.69 58.87 20.69 58.87 20.7 59.03 20.7 59.03 20.7 59.19 20.7 59.19 20.71 59.34 20.71 59.35 20.71 59.5 20.71 59.5 20.71 59.66 20.71 59.66 20.71 59.81 20.71 59.81 20.71 59.96 20.71 59.97 20.71 60.12 20.71 60.12 20.71 60.28 20.71 60.28 20.7 60.44 20.7 60.44 20.69 60.6 20.69 60.6 20.68 60.75 20.68 60.75 20.67 60.91 20.67 60.91 20.66 61.07 20.66 61.07 20.65 61.22 20.64 61.38 20.64 61.38 20.62 61.53 20.61 61.69 20.6 61.84 20.6 61.84 20.59 62 20.59 62 20.57 62.15 20.56 62.31 20.55 62.46 20.54 62.61 20.53 62.77 20.52 62.92 20.52 63.07 20.51 63.22 20.51 63.37 20.51 63.52 20.51 63.67 20.51 63.82 20.51 63.97 20.52 64.11 20.52 64.26 20.54 64.41 20.54 64.41 20.55 64.55 20.55 64.55 20.56 64.7 20.57 64.7 20.58 64.85 20.58 64.85 20.6 64.95 20.62 65.05 20.62 65.05 20.63 65.14 20.63 65.14 20.65 65.24 20.67 65.33 20.69 65.42 20.69 65.42 20.71 65.51 20.71 65.51 20.74 65.59 20.76 65.67 20.76 65.67 20.79 65.76 20.82 65.84 20.85 65.92 20.88 66 20.91 66.07 20.94 66.16 20.94 66.16 20.98 66.23 20.98 66.23 21.01 66.31 21.05 66.38 21.05 66.38 21.1 66.46 21.1 66.46 21.13 66.53 21.13 66.53 21.18 66.6 21.18 66.6 21.22 66.67 21.22 66.67 21.27 66.75 21.32 66.82 21.32 66.82 21.37 66.89 21.37 66.89 21.42 66.96 21.48 67.04 21.54 67.11 21.54 67.11 21.6 67.18 21.66 67.25 21.66 67.25 21.72 67.33 21.72 67.33 21.79 67.4 21.89 67.51 21.89 67.51 22 67.62 22.11 67.73 22.11 67.73 22.22 67.82 22.22 67.82 22.33 67.92 22.45 68.01 22.56 68.09 22.56 68.09 22.69 68.18 22.81 68.26 22.94 68.34 22.94 68.34 23.06 68.42 23.19 68.49 23.33 68.56 23.46 68.64 23.46 68.63 23.61 68.71 23.75 68.78 23.86 68.83 23.86 68.83 23.97 68.88 23.97 68.88 24.09 68.94 24.09 68.94 24.21 68.99 24.33 69.04 24.33 69.04 24.46 69.09 24.46 69.09 24.59 69.14 24.59 69.14 24.73 69.2 24.73 69.2 24.87 69.25 24.87 69.25 25.01 69.3 25.01 69.31 25.15 69.36 25.15 69.36 25.3 69.41 25.3 69.41 25.44 69.46" />
      <path class="cls-1"
        d="M51.07,53.39h-.16l-.05-.16-.35-1.2c-.19-.59-.4-1.16-.63-1.72-.23-.56-.49-1.11-.77-1.66-.21-.4-.46-.83-.71-1.26h0s-.07-.13-.07-.13l-.08-.14.12-.12,1.99-1.99c-.34-.52-.72-1.02-1.11-1.51-.43-.54-.88-1.05-1.33-1.55h0l-.95-.95c-.5-.46-1.02-.92-1.55-1.34-.48-.39-.98-.77-1.5-1.11l-1.99,1.99-.12.12-.14-.08-1.1-.63h0c-.54-.29-1.09-.56-1.65-.8-.55-.24-1.12-.46-1.71-.67-.5-.16-.98-.3-1.46-.44h0l-.06-.02-.16-.05v-3c-1.05-.23-2.13-.38-3.21-.46-.43-.03-.85-.05-1.26-.06-.1,0-.21,0-.31,0l.04.05h0s1.82,2.55,1.82,2.55l.04.11.2,2.8c1.22.15,2.41.42,3.55.8,1.19.4,2.33.91,3.4,1.53,5.51,3.19,9.23,9.16,9.23,15.96h0c0,3.29-.87,6.39-2.39,9.07-.25.44-.51.86-.79,1.28-1.42,2.08-3.26,3.86-5.39,5.22h0s-1.64,2.84-1.64,2.84l-.06.11h-16.28l-.06-.11-1.64-2.82h0c-.69-.44-1.35-.92-1.98-1.45-.65-.55-1.28-1.15-1.85-1.79-2.96-3.27-4.77-7.6-4.77-12.34h0s0,0,0,0c0-1.32.14-2.62.41-3.86.27-1.25.66-2.45,1.17-3.59,2.58-5.8,8.08-10.04,14.61-10.84l.2-2.79.04-.11,1.82-2.54h0s.01-.02.01-.02l.04-.05c-.22,0-.45,0-.68.01-1.38.05-2.77.22-4.11.5v3l-.16.05-.07.02c-.48.14-.96.28-1.45.44-.43.15-.85.31-1.25.47-.4.17-.81.34-1.22.54h0c-.35.17-.67.34-.99.52h0c-.33.19-.66.37-.98.56l-.14.08-.12-.12-1.99-1.99c-.52.35-1.02.72-1.5,1.11-.53.43-1.04.88-1.55,1.34l-.95.95c-.46.5-.91,1.01-1.34,1.55-.39.49-.76.99-1.11,1.51l1.99,1.99.12.12-.08.14-.06.11c-.24.42-.49.85-.72,1.28-.2.39-.39.79-.57,1.2-.18.41-.35.82-.51,1.23-.07.2-.15.41-.22.63-.07.2-.13.41-.2.63h0l-.25.89-.05.16h-3c-.09.41-.16.81-.22,1.21-.07.44-.12.88-.17,1.32-.22,2.19-.12,4.43.27,6.59h2.98l.04.16.33,1.26c.14.49.3.98.48,1.47.18.49.37.97.58,1.43h0c.1.22.2.43.29.62.1.2.2.41.31.61h0l.44.81.08.14-.11.11-2.01,2.01c.34.53.7,1.04,1.08,1.54.42.54.86,1.06,1.31,1.58l.94.97c.49.47,1,.93,1.51,1.37.47.4.96.78,1.47,1.13l1.98-1.98.12-.12.15.09,1.14.69c.42.24.85.46,1.28.67.43.21.87.4,1.32.59.29.11.57.22.85.32.29.1.57.2.87.29l.91.27.15.04v3c1.05.23,2.13.38,3.21.46.43.03.85.05,1.26.06.42,0,.84,0,1.27,0,1.39-.05,2.77-.22,4.11-.5v-3l.16-.04c.25-.07.5-.14.81-.24.26-.08.53-.16.8-.25h0c.45-.16.9-.33,1.35-.52.45-.19.88-.39,1.32-.6.21-.11.42-.22.63-.34.2-.11.41-.23.63-.36h0l.83-.5.14-.09.12.12,1.98,1.98c.51-.35,1-.73,1.47-1.13.52-.44,1.03-.9,1.52-1.37l.93-.97c.45-.51.89-1.04,1.31-1.58.38-.5.75-1.01,1.08-1.54l-2.01-2.01-.11-.11.08-.14.04-.07c.24-.44.48-.89.71-1.35.23-.47.44-.94.63-1.41.19-.47.37-.96.53-1.45h0c.1-.31.19-.63.28-.95.09-.32.17-.64.25-.97l.04-.16h2.97c.07-.36.12-.71.17-1.07.05-.41.1-.83.13-1.26v-.02c.03-.33.04-.66.06-.98.01-.33.02-.66.02-.98,0-1.62-.16-3.23-.5-4.82h-2.83Z" />
      <path class="cls-1"
        d="M.08,0l-.08,84.03c20.38,10.4,40.76,10.39,61.14,0l.08-84.03H.08ZM55.86,58.44h0s0,.17,0,.17h0s0,.17,0,.17h0s0,.17,0,.17h0s0,.17,0,.17h0s0,.17,0,.17h0s0,.17,0,.17h0s0,.17,0,.17v.17s0,0,0,0v.17s-.01,0-.01,0v.17h-.01v.17s-.01,0-.01,0v.17s-.02,0-.02,0l-.02.17h0s-.02.17-.02.17h0s-.02.17-.02.17h0s-.02.17-.02.17h0s-.02.17-.02.17l-.02.17h0s-.02.17-.02.17l-.02.16h0s-.03.16-.03.16h0s-.02.17-.02.17h0s-.03.16-.03.16h0s-.03.16-.03.16h0s-.03.16-.03.16h0s-.03.16-.03.16l-.03.16h0s-.03.16-.03.16l-.03.16h0s-.03.16-.03.16h0s-.08.36-.08.36l-.04.17h-3.04s-.05.18-.05.18h0s-.05.18-.05.18h0s-.05.18-.05.18h0s-.05.18-.05.18h0s-.05.18-.05.18h0s-.06.18-.06.18h0s-.06.17-.06.17h0s-.06.18-.06.18h0s-.06.18-.06.18h0s-.06.17-.06.17h0s-.06.17-.06.17h0s-.06.17-.06.17h0s-.06.17-.06.17h0s-.07.17-.07.17h0s-.07.17-.07.17h0s-.07.17-.07.17h0s-.07.17-.07.17h0s-.07.17-.07.17h0s-.07.17-.07.17h0l-.07.17h0s-.07.17-.07.17h0s-.08.17-.08.17h0s-.08.17-.08.17h0s-.08.17-.08.17h0s-.08.16-.08.16h0s-.08.16-.08.16h0s-.08.16-.08.16h0s-.08.16-.08.16h0s0,.01,0,.01l2.04,2.04.12.12-.09.14-.29.47h0s-.19.3-.19.3h0s-.19.3-.19.3h0s-.2.3-.2.3h0s-.2.29-.2.29h0s-.21.29-.21.29h0s-.21.29-.21.29h0s-.21.28-.21.28h0s-.22.28-.22.28h0s-.22.28-.22.28h0s-.22.27-.22.27h0s-.23.27-.23.27h0s-.23.27-.23.27h0s-.24.26-.24.26h0s-.24.26-.24.26h0s-.24.26-.24.26h0s-.25.25-.25.25h0s-.25.25-.25.25h0s-.25.25-.25.25h0s-.26.24-.26.24h0s-.26.24-.26.24h0s-.26.24-.26.24h0s-.27.23-.27.23h0s-.27.23-.27.23h0s-.27.23-.27.23h0s-.28.22-.28.22h0s-.28.22-.28.22h0s-.28.21-.28.21h0s-.28.21-.28.21h0s-.29.2-.29.2h0s-.29.2-.29.2h0s-.46.31-.46.31l-.15.1-.12-.12-2.02-2.02h0s0,0,0,0l-.16.1h0s-.17.1-.17.1h0s-.16.09-.16.09h0s-.17.09-.17.09h0s-.17.09-.17.09h0s-.17.09-.17.09l-.17.09h0s-.17.09-.17.09h0s-.17.09-.17.09h0s-.17.08-.17.08h0s-.17.08-.17.08h0s-.17.08-.17.08h0l-.17.08h0s-.18.08-.18.08h0s-.17.08-.17.08h0s-.18.08-.18.08h0s-.18.07-.18.07h0s-.18.07-.18.07h0s-.18.07-.18.07h0l-.18.07h0l-.18.07h0s-.18.07-.18.07h0s-.18.07-.18.07h0l-.18.06h0s-.18.06-.18.06h0s-.18.06-.18.06h0s-.19.06-.19.06h0l-.18.05h0s-.03.01-.03.01v3.06l-.17.04-.37.09h0l-.18.04h0l-.18.04h0l-.18.04h0l-.18.04h0l-.18.04h0s-.18.04-.18.04h0l-.18.03h0l-.18.03h0s-.18.03-.18.03h0l-.18.03h0l-.19.03h0s-.18.03-.18.03h0l-.19.03h0l-.19.03h0l-.19.02h0s-.19.02-.19.02h0l-.19.02h0l-.19.02h0l-.19.02-.19.02h0s-.19.02-.19.02h-.19s0,.01,0,.01h-.19s-.19.02-.19.02h-.19s0,0,0,0h-.19s0,0,0,0h-.19s0,0,0,0h-.19s0,0,0,0h-.19s-.19,0-.19,0h-.58s-.19,0-.19,0h-.2s0,0,0,0h-.19s-.19-.01-.19-.01h-.19s0,0,0,0h-.19s-.19-.02-.19-.02h-.19s-.19-.03-.19-.03h0s-.19-.02-.19-.02l-.19-.02h0l-.19-.02h0l-.19-.02h0l-.19-.02h0s-.19-.02-.19-.02h0l-.19-.03h0l-.19-.03h0l-.19-.03h0s-.19-.03-.19-.03h0l-.19-.03h0l-.18-.03h0l-.18-.03h0s-.18-.03-.18-.03h0l-.18-.04h0s-.18-.04-.18-.04h0l-.18-.04h0l-.18-.04h0l-.18-.04h0l-.18-.04h0l-.37-.09-.16-.04v-3.06h-.03s0-.01,0-.01l-.19-.05h0s-.18-.06-.18-.06h0l-.18-.06h0s-.18-.06-.18-.06h0s-.18-.06-.18-.06h0l-.18-.06h0s-.18-.07-.18-.07h0s-.18-.07-.18-.07h0l-.18-.07h0l-.18-.07h0s-.18-.07-.18-.07h0s-.18-.07-.18-.07h0s-.18-.08-.18-.08h0s-.17-.08-.17-.08h0s-.18-.08-.18-.08h0s-.17-.08-.17-.08h0l-.17-.08h0s-.17-.08-.17-.08h0s-.17-.08-.17-.08h0s-.17-.09-.17-.09h0s-.17-.09-.17-.09h0s-.17-.09-.17-.09h0l-.17-.09h0s-.17-.09-.17-.09h0s-.17-.09-.17-.09h0s-.16-.09-.16-.09h0s-.16-.1-.16-.1h0s-.16-.1-.16-.1h0s0,0,0,0l-2.01,2.02-.13.12-.15-.1-.46-.31h0s-.29-.21-.29-.21h0s-.29-.21-.29-.21h0s-.29-.21-.29-.21h0s-.28-.21-.28-.21h0s-.28-.22-.28-.22h0s-.28-.22-.28-.22h0s-.27-.22-.27-.22h0s-.27-.23-.27-.23h0s-.27-.23-.27-.23h0s-.26-.24-.26-.24h0s-.26-.24-.26-.24h0s-.26-.24-.26-.24h0s-.25-.25-.25-.25h0s-.25-.25-.25-.25h0s-.25-.26-.25-.26h0s-.24-.26-.24-.26h0s-.24-.26-.24-.26h0s-.23-.27-.23-.27h0s-.23-.27-.23-.27h0s-.23-.27-.23-.27h0s-.22-.27-.22-.27h0s-.22-.28-.22-.28h0s-.22-.28-.22-.28h0s-.21-.29-.21-.29h0s-.21-.29-.21-.29h0s-.21-.29-.21-.29h0s-.2-.29-.2-.29h0s-.2-.29-.2-.29h0s-.19-.3-.19-.3h0s-.19-.3-.19-.3h0s-.29-.47-.29-.47l-.09-.14.12-.12,2.04-2.04h0s0-.01,0-.01l-.08-.16h0s-.08-.16-.08-.16h0s-.08-.16-.08-.16l-.08-.16h0s-.08-.17-.08-.17h0s-.08-.16-.08-.16h0s-.08-.17-.08-.17h0s-.08-.17-.08-.17h0s-.07-.17-.07-.17h0s-.07-.17-.07-.17h0s-.07-.17-.07-.17h0s-.07-.17-.07-.17h0s-.07-.17-.07-.17h0s-.07-.17-.07-.17h0s-.07-.17-.07-.17h0s-.06-.17-.06-.17h0l-.06-.17h0s-.06-.17-.06-.17h0s-.06-.17-.06-.17h0s-.06-.18-.06-.18h0s-.06-.18-.06-.18h0s-.05-.17-.05-.17h0s-.06-.18-.06-.18h0s-.05-.18-.05-.18h0s-.05-.18-.05-.18h0s-.05-.18-.05-.18h0s-.05-.18-.05-.18h0s-.05-.18-.05-.18h0s0,0,0,0h-3.04l-.04-.17-.08-.36h0s-.03-.16-.03-.16h0s-.03-.16-.03-.16h0s-.03-.16-.03-.16h0s-.03-.16-.03-.16h0s-.03-.16-.03-.16h0s-.03-.16-.03-.16h0s-.03-.16-.03-.16h0s-.03-.17-.03-.17h0l-.03-.16h0s-.02-.17-.02-.17h0s-.02-.17-.02-.17h0s-.02-.16-.02-.16h0s-.02-.17-.02-.17h0s-.02-.17-.02-.17h0s-.02-.17-.02-.17h0s-.02-.17-.02-.17h0s-.02-.17-.02-.17h0s-.02-.17-.02-.17h0v-.17s-.01,0-.01,0v-.17s-.01,0-.01,0v-.17s-.02-.17-.02-.17h0s0-.17,0-.17h0s0-.17,0-.17h0s0-.17,0-.17h0v-.17s0,0,0,0v-.17s0,0,0,0v-.17s0,0,0,0v-.17s0,0,0,0v-.17s0,0,0,0v-.17h0v-.19h0s0-.19,0-.19h0v-.19s0,0,0,0v-.19s0,0,0,0v-.19s0,0,0,0v-.19s0,0,0,0v-.19s.02-.19.02-.19h0s.01-.19.01-.19v-.19s.01,0,.01,0l.02-.19h0s.02-.19.02-.19h0s.02-.19.02-.19h0s.02-.19.02-.19h0s.02-.19.02-.19l.02-.19h0s.02-.19.02-.19h0s.02-.19.02-.19h0s.03-.18.03-.18h0s.03-.18.03-.18h0s.03-.19.03-.19l.03-.18h0s.03-.18.03-.18h0s.03-.18.03-.18h0s.03-.18.03-.18h0s.04-.18.04-.18h0l.04-.18h0s.04-.18.04-.18h0s.04-.18.04-.18h0s.04-.18.04-.18h0s.04-.18.04-.18h0s.09-.37.09-.37l.04-.17h3.06s.05-.18.05-.18h0s.05-.17.05-.17h0s.05-.17.05-.17h0s.06-.17.06-.17h0s.06-.17.06-.17l.06-.17h0s.06-.17.06-.17h0s.06-.17.06-.17h0s.06-.17.06-.17l.06-.17h0s.06-.17.06-.17h0s.07-.17.07-.17h0s.07-.16.07-.16h0s.07-.17.07-.17h0s.07-.16.07-.16h0l.07-.16h0s.07-.16.07-.16h0l.07-.16h0s.07-.16.07-.16h0s.08-.16.08-.16h0s.08-.16.08-.16h0s.08-.16.08-.16h0s.08-.16.08-.16l.08-.16h0s.08-.16.08-.16l.08-.15h0s.08-.16.08-.16h0s.08-.15.08-.15l-2.03-2.03-.12-.12.09-.15.3-.47h0s.2-.3.2-.3h0s.2-.29.2-.29h0s.2-.29.2-.29h0s.21-.29.21-.29h0s.21-.29.21-.29h0s.21-.28.21-.28h0s.22-.28.22-.28h0s.22-.28.22-.28h0s.22-.27.22-.27h0s.23-.27.23-.27h0s.23-.27.23-.27h0s.24-.26.24-.26h0s.24-.26.24-.26h0s.24-.26.24-.26h0s.25-.25.25-.25h0s.25-.25.25-.25h0s.25-.25.25-.25h0s.26-.24.26-.24h0s.26-.24.26-.24h0s.26-.24.26-.24h0s.27-.23.27-.23h0l.27-.23h0s.27-.22.27-.22h0s.28-.22.28-.22h0s.28-.22.28-.22h0s.28-.21.28-.21h0s.29-.21.29-.21h0s.29-.2.29-.2h0s.29-.2.29-.2h0s.29-.2.29-.2h0s.47-.3.47-.3l.15-.09.12.12,2.03,2.03.15-.08h0l.15-.08h0s.16-.09.16-.09h0l.16-.08h0s.15-.08.15-.08h0s.16-.08.16-.08h0s.16-.08.16-.08l.16-.08h0s.16-.08.16-.08h0s.16-.08.16-.08h0s.16-.08.16-.08h0s.16-.07.16-.07h0s.16-.07.16-.07h0l.16-.07h0l.16-.07h0s.16-.07.16-.07h0s.16-.07.16-.07h0l.16-.07h0s.17-.07.17-.07h0s.17-.06.17-.06h0s.17-.06.17-.06h0l.17-.06h0l.17-.06h0s.17-.06.17-.06h0l.17-.06h0l.17-.05h0s.17-.05.17-.05h0l.17-.05h0v-3.06l.17-.04.37-.09h0l.18-.04h0l.18-.04h0s.18-.04.18-.04h0l.18-.04h0l.18-.04h0l.18-.04h0l.19-.04h0l.18-.03h0l.18-.03h0l.18-.03h0l.19-.03h0l.19-.03h0l.19-.03h0l.19-.03h0l.19-.02h0s.19-.02.19-.02h0l.19-.02h0l.19-.02.19-.02h0s.19-.02.19-.02h.19s0-.01,0-.01h.19s.19-.03.19-.03h.19s0-.01,0-.01h.19s.19-.02.19-.02h.19s0,0,0,0h.19s.19,0,.19,0h.2s0,0,0,0h.58s0,0,0,0h.19s0,0,0,0h.19s0,0,0,0h.19s0,0,0,0h.19s.19.02.19.02h.19s0,.01,0,.01h.19s.19.03.19.03h.19s0,.01,0,.01l.19.02h0s.19.02.19.02l.19.02h0l.19.02h0l.19.02h0s.19.02.19.02h0l.19.03h0l.19.03h0l.19.03h0l.19.03h0l.18.03h0l.18.03h0l.18.03h0l.18.04h0l.18.04h0l.18.04h0l.18.04h0l.18.04h0s.18.04.18.04h0l.18.04h0l.37.09.17.04v3.06h0s0,0,0,0l.17.05h0l.17.05h0s.17.06.17.06h0l.17.06h0l.17.06h0s.17.06.17.06h0l.17.06h0l.17.06h0s.16.06.16.06h0s.17.07.17.07h0s.16.07.16.07h0l.16.07h0s.16.07.16.07h0s.16.07.16.07h0l.16.07h0l.16.07h0s.16.07.16.07h0s.16.08.16.08h0s.16.08.16.08h0s.16.08.16.08h0s.16.08.16.08h0l.16.08h0s.16.08.16.08h0l.16.08h0s.15.08.15.08h0s.15.09.15.09h0l.15.08h0s.15.08.15.08l2.03-2.03.12-.12.15.09.47.3h0s.29.2.29.2h0s.29.2.29.2h0s.29.2.29.2h0s.29.21.29.21h0s.28.21.28.21h0s.28.22.28.22h0s.28.22.28.22h0s.27.22.27.22h0s.27.23.27.23h0l.27.23h0s.27.24.27.24h0s.26.24.26.24h0s.26.24.26.24h0s.25.25.25.25h0s.25.25.25.25h0s.25.25.25.25h0s.24.26.24.26h0s.24.26.24.26h0s.24.26.24.26h0s.23.27.23.27h0s.23.27.23.27h0s.22.27.22.27h0s.22.28.22.28h0s.22.28.22.28h0s.21.28.21.28h0s.21.29.21.29h0s.21.29.21.29h0s.2.29.2.29h0s.2.3.2.3h0s.2.3.2.3h0s.3.47.3.47l.09.15-.12.12-2.03,2.03.08.15h0s.08.15.08.15h0s.08.16.08.16h0l.08.16h0s.08.16.08.16h0s.08.16.08.16h0s.08.16.08.16h0s.08.16.08.16h0s.07.16.07.16h0l.08.16h0s.07.16.07.16h0l.07.16h0s.07.16.07.16h0s.07.16.07.16h0l.07.16h0s.07.16.07.16h0s.07.17.07.17h0s.06.17.06.17h0s.06.17.06.17h0s.06.17.06.17h0l.06.17h0s.06.17.06.17h0s.06.17.06.17h0s.06.17.06.17h0s.05.17.05.17h0s.05.17.05.17h0s.05.17.05.17h0s.05.17.05.17h0s2.89,0,2.89,0h.17l.04.17.09.37h0s.04.18.04.18h0s.04.18.04.18h0s.04.18.04.18h0s.04.18.04.18h0s.04.18.04.18h0s.04.18.04.18h0s.03.18.03.18h0s.03.18.03.18h0s.03.18.03.18l.03.18h0s.03.19.03.19h0s.03.19.03.19h0s.03.19.03.19h0s.02.19.02.19h0s.02.19.02.19l.02.19h0s.02.19.02.19l.02.19h0s.02.19.02.19h0s.02.19.02.19h0s.02.19.02.19h0s.01.19.01.19h0v.19s.01,0,.01,0v.19s0,0,0,0v.19h0v.19s0,0,0,0v.19s.01.19.01.19h0s0,.19,0,.19h0s0,.19,0,.19h0v.36Z" />
      <polygon class="cls-1"
        points="39.2 63.62 39.2 63.63 39.19 63.81 39.19 63.82 39.18 64 39.18 64.01 39.13 64.35 39.13 64.36 39.08 64.68 39.07 64.7 39.01 65.01 39 65.02 38.92 65.32 38.92 65.33 38.82 65.62 38.82 65.63 38.71 65.91 38.71 65.92 38.59 66.19 38.59 66.2 38.46 66.46 38.46 66.47 38.32 66.72 38.31 66.73 38.16 66.97 38.16 66.97 38 67.21 38 67.22 37.83 67.44 37.82 67.45 37.65 67.67 37.65 67.67 37.46 67.88 37.46 67.89 37.27 68.09 37.27 68.1 37.07 68.29 37.07 68.3 36.87 68.49 36.86 68.49 36.66 68.68 36.65 68.68 36.44 68.87 36.44 68.87 36.22 69.05 36.22 69.05 36 69.23 36 69.23 35.78 69.4 35.77 69.4 35.62 69.52 35.63 69.52 35.78 69.46 35.78 69.46 35.92 69.41 35.92 69.41 36.07 69.36 36.07 69.36 36.21 69.3 36.21 69.3 36.35 69.25 36.35 69.25 36.49 69.2 36.49 69.2 36.63 69.15 36.76 69.09 36.76 69.09 36.89 69.04 36.89 69.04 37.01 68.99 37.01 68.99 37.13 68.93 37.13 68.93 37.25 68.88 37.36 68.83 37.36 68.83 37.47 68.78 37.47 68.78 37.61 68.71 37.61 68.71 37.76 68.64 37.76 68.64 37.89 68.56 38.03 68.49 38.03 68.49 38.16 68.42 38.29 68.34 38.29 68.34 38.41 68.26 38.53 68.18 38.66 68.09 38.66 68.09 38.77 68 38.88 67.92 38.88 67.92 39 67.82 39.11 67.72 39.11 67.72 39.21 67.62 39.21 67.62 39.32 67.52 39.43 67.4 39.5 67.33 39.5 67.33 39.56 67.26 39.56 67.26 39.62 67.18 39.68 67.11 39.68 67.11 39.74 67.04 39.74 67.04 39.79 66.96 39.85 66.89 39.9 66.82 39.95 66.75 40 66.67 40 66.67 40.04 66.6 40.08 66.53 40.13 66.45 40.13 66.45 40.17 66.38 40.17 66.38 40.21 66.31 40.24 66.23 40.24 66.23 40.28 66.15 40.28 66.15 40.31 66.08 40.31 66.08 40.34 66 40.37 65.92 40.4 65.84 40.43 65.76 40.43 65.76 40.46 65.67 40.48 65.59 40.5 65.5 40.51 65.5 40.53 65.42 40.53 65.42 40.55 65.32 40.57 65.23 40.59 65.14 40.61 65.05 40.6 65.05 40.62 64.95 40.63 64.85 40.64 64.85 40.65 64.71 40.65 64.71 40.67 64.55 40.67 64.55 40.69 64.41 40.68 64.41 40.7 64.26 40.7 64.26 40.7 64.11 40.71 63.97 40.71 63.82 40.71 63.67 40.71 63.52 40.71 63.37 40.71 63.22 40.7 63.07 40.7 62.92 40.69 62.76 40.68 62.61 40.68 62.61 40.67 62.46 40.67 62.46 40.66 62.31 40.66 62.31 40.64 62.15 40.63 62 40.62 61.84 40.61 61.69 40.6 61.53 40.58 61.38 40.58 61.38 40.57 61.22 40.57 61.22 40.56 61.07 40.56 61.07 40.55 60.91 40.55 60.91 40.54 60.75 40.54 60.75 40.53 60.6 40.53 60.6 40.52 60.44 40.52 60.44 40.52 60.28 40.52 60.28 40.51 60.12 40.51 60.12 40.51 59.97 40.51 59.96 40.51 59.81 40.5 59.81 40.5 59.66 40.51 59.66 40.51 59.5 40.51 59.5 40.51 59.35 40.51 59.34 40.52 59.19 40.52 59.19 40.53 59.03 40.53 59.03 40.54 58.87 40.54 58.87 40.55 58.71 40.55 58.71 40.56 58.55 40.56 58.54 40.58 58.38 40.58 58.38 40.6 58.22 40.6 58.22 40.62 58.06 40.62 58.06 40.65 57.9 40.65 57.89 40.68 57.74 40.68 57.73 40.71 57.57 40.71 57.57 40.75 57.41 40.75 57.41 40.79 57.25 40.79 57.25 40.83 57.09 40.83 57.09 40.87 56.93 40.88 56.93 40.92 56.77 40.93 56.77 40.98 56.62 40.98 56.61 41.04 56.46 41.04 56.46 41.1 56.31 41.1 56.3 41.16 56.16 41.17 56.15 41.23 56.01 41.24 56 41.31 55.86 41.31 55.85 41.33 55.81 41.33 55.81 41.33 55.81 41.19 55.85 41.05 55.89 41.05 55.89 40.92 55.93 40.92 55.93 40.78 55.98 40.78 55.98 40.64 56.04 40.51 56.09 40.38 56.15 40.38 56.15 40.24 56.21 40.24 56.21 40.11 56.28 40.11 56.28 39.98 56.35 39.98 56.35 39.88 56.41 39.77 56.48 39.77 56.48 39.66 56.55 39.66 56.55 39.54 56.64 39.42 56.73 39.3 56.82 39.18 56.92 39.18 56.92 39.05 57.02 39.05 57.02 38.93 57.13 38.93 57.13 38.81 57.24 38.7 57.34 38.7 57.34 38.59 57.45 38.48 57.55 38.38 57.65 38.31 57.72 38.31 57.72 38.31 57.72 38.34 57.91 38.34 57.91 38.37 58.1 38.37 58.1 38.4 58.29 38.4 58.29 38.43 58.49 38.43 58.49 38.47 58.68 38.51 58.88 38.51 58.88 38.55 59.08 38.59 59.29 38.59 59.29 38.63 59.49 38.67 59.7 38.71 59.91 38.71 59.91 38.76 60.12 38.76 60.12 38.8 60.33 38.84 60.54 38.84 60.54 38.89 60.75 38.89 60.75 38.93 60.96 38.93 60.96 38.96 61.17 38.97 61.17 39 61.38 39 61.38 39.04 61.59 39.04 61.59 39.07 61.8 39.07 61.8 39.1 62.01 39.1 62.01 39.13 62.21 39.13 62.22 39.15 62.42 39.15 62.43 39.17 62.63 39.17 62.63 39.19 62.83 39.19 62.83 39.2 63.03 39.2 63.03 39.21 63.23 39.21 63.23 39.21 63.43 39.21 63.43 39.2 63.62" />
      <path class="cls-1"
        d="M40.97,71.79h0c.66-.51,1.28-1.06,1.86-1.66,2.98-3.07,4.82-7.26,4.82-11.86h0c0-1.22-.13-2.41-.37-3.56-.24-1.14-.6-2.25-1.07-3.3-2.35-5.31-7.34-9.22-13.29-10.03l.25,4.99.42,8.37c.26-.26.54-.49.83-.7.39-.27.81-.51,1.28-.7.9-.36,1.84-.49,2.78-.62.19-.03.38-.05.62-.09l.5-.07-.3.41-.02.02h0c-.1.13-.2.28-.28.43-.08.15-.16.31-.23.47-.28.66-.43,1.39-.5,2.07.05-.05.11-.1.16-.14.2-.17.42-.32.66-.47,1.18-.71,2.66-1.05,4.13-1.14l.46-.03-.27.37h0c-.09.13-.19.27-.28.41-.09.15-.18.3-.27.46-.45.82-.82,1.81-.97,2.81-.17,1.13-.08,2.27,0,3.42.03.39.06.78.08,1.19.03.55.04,1.11,0,1.66-.04.56-.14,1.11-.32,1.65h0c-.05.15-.1.29-.16.43-.06.14-.12.28-.19.41-.36.68-.86,1.28-1.45,1.79-.64.54-1.42.98-2.25,1.36-.72.33-1.49.6-2.24.85h0c.08.09.16.17.24.25.43.41.95.78,1.53,1.09.29.15.59.3.92.43.29.12.61.24.93.35.7-.4,1.37-.84,2.01-1.33" />
      <path class="cls-1"
        d="M27.44,58.02c-.73,1.71-1.08,3.33-1.07,4.88.01,1.54.39,3.01,1.12,4.42.71,1.37,1.75,2.68,3.12,3.93,1.37-1.25,2.41-2.56,3.12-3.93.73-1.41,1.1-2.88,1.12-4.42.01-1.55-.34-3.18-1.07-4.88-.7-1.65-1.76-3.37-3.17-5.16-1.41,1.79-2.46,3.51-3.17,5.16" />
      <path class="cls-1"
        d="M69.85,61.88c0,.37.03.64.1.82.06.18.18.33.33.47h-2c.16-.14.27-.3.33-.47.06-.18.1-.45.1-.82v-4.71c0-.37-.03-.64-.1-.81-.06-.17-.17-.33-.33-.47h2c-.16.14-.27.29-.33.47-.06.17-.1.45-.1.81v4.71ZM72.64,62.22c0,.22.03.41.09.56.06.15.15.28.28.39h-1.71c.13-.11.22-.24.28-.39.06-.15.08-.34.08-.56v-3.18c0-.23-.03-.42-.09-.57-.06-.15-.15-.29-.28-.4h.12c.17,0,.35,0,.54-.03.19-.02.4-.05.63-.09l.05.81c.26-.28.53-.48.79-.62.27-.13.55-.2.85-.2.56,0,1.03.17,1.38.52.35.34.53.8.53,1.35v2.4c0,.22.03.41.09.56.05.15.15.28.28.39h-1.73c.13-.11.22-.24.28-.39.06-.15.09-.34.09-.56v-1.83c0-.55-.1-.96-.3-1.21-.2-.25-.52-.38-.96-.38s-.78.11-.98.35c-.2.23-.29.62-.29,1.17v1.9ZM77.55,63.07l-.42-1.16c.39.27.76.46,1.1.59.34.13.65.19.96.19.37,0,.67-.07.9-.22.23-.15.34-.34.34-.58,0-.3-.38-.6-1.15-.91-.18-.07-.33-.13-.43-.18-.45-.19-.78-.4-.98-.63-.21-.23-.3-.5-.3-.82,0-.45.18-.81.54-1.07.36-.27.84-.4,1.46-.4.2,0,.42.01.66.04.24.03.49.07.75.13v.91c-.27-.13-.53-.23-.78-.3-.25-.07-.49-.11-.73-.11-.27,0-.48.06-.63.17-.16.11-.24.26-.24.45,0,.27.32.52.96.75.27.1.49.18.65.25.45.19.79.41,1,.64.21.23.32.5.32.8,0,.53-.22.95-.68,1.27-.45.32-1.06.48-1.82.48-.28,0-.53-.02-.77-.07-.24-.05-.47-.12-.69-.23M82.74,58.81h-.7v-.38c.42-.04.75-.23.99-.58.24-.35.37-.82.39-1.42h.31v1.63h1.52v.96c-.09-.07-.19-.13-.31-.16-.12-.03-.28-.05-.48-.05h-.73v2.48c0,.46.08.79.23,1,.15.21.39.32.71.32.07,0,.15-.01.23-.02.08-.01.16-.03.24-.05l-.51.75h-.03c-.14.01-.24.02-.3.02-.52,0-.9-.13-1.16-.39-.26-.26-.39-.64-.39-1.15v-2.96ZM86.18,56.7c0-.18.06-.33.19-.45.13-.13.28-.19.46-.19s.32.06.45.19c.12.12.18.28.18.45s-.06.34-.18.46c-.12.12-.27.19-.45.19s-.34-.06-.46-.19c-.12-.12-.19-.28-.19-.46M87.36,62.22c0,.22.03.41.09.56.06.15.15.28.28.39h-1.71c.13-.11.22-.24.28-.39.06-.15.09-.34.09-.56v-3.18c0-.23-.03-.42-.09-.57-.06-.15-.15-.29-.28-.4.3,0,.56-.02.78-.04.22-.02.41-.04.57-.07v4.26ZM89.02,58.81h-.7v-.38c.42-.04.75-.23.99-.58.24-.35.37-.82.38-1.42h.31v1.63h1.52v.96c-.08-.07-.19-.13-.3-.16-.12-.03-.28-.05-.48-.05h-.73v2.48c0,.46.07.79.23,1,.15.21.39.32.71.32.07,0,.15-.01.23-.02.08-.01.16-.03.24-.05l-.52.75h-.02c-.14.01-.24.02-.3.02-.52,0-.9-.13-1.16-.39-.26-.26-.39-.64-.39-1.15v-2.96ZM96.15,62.48c-.26.28-.53.49-.79.62-.26.13-.55.2-.85.2-.56,0-1.02-.17-1.38-.52-.36-.35-.54-.8-.54-1.36v-2.38c0-.23-.03-.42-.09-.57-.06-.15-.15-.29-.28-.4h.15c.2,0,.41,0,.61-.03.2-.02.4-.05.6-.09v2.91c0,.55.11.96.3,1.21.2.25.52.38.95.38.46,0,.79-.12.98-.35.2-.23.3-.63.3-1.17v-1.89c0-.23-.03-.42-.09-.57-.06-.15-.15-.29-.28-.4h.13c.19,0,.38,0,.58-.03.2-.02.42-.05.65-.09v4.13c0,.22.03.41.08.56.06.15.15.28.28.39h-.1c-.15,0-.32,0-.51.03-.19.02-.41.06-.68.1l-.05-.69ZM98.72,58.81h-.7v-.38c.42-.04.75-.23.99-.58.24-.35.37-.82.38-1.42h.31v1.63h1.52v.96c-.09-.07-.19-.13-.31-.16-.12-.03-.28-.05-.48-.05h-.73v2.48c0,.46.08.79.23,1,.15.21.39.32.71.32.07,0,.15-.01.23-.02.08-.01.16-.03.24-.05l-.52.75h-.02c-.14.01-.24.02-.3.02-.52,0-.9-.13-1.16-.39-.26-.26-.39-.64-.39-1.15v-2.96ZM71.11,71.96c0,.37.04.64.1.82.07.17.18.34.33.47h-2c.16-.14.27-.3.33-.47.06-.18.1-.45.1-.82v-5.2h-.59c-.41,0-.73.03-.99.1-.25.06-.45.17-.6.3l.36-1.2h5.21l-.34,1.18c-.11-.13-.25-.23-.43-.29-.18-.06-.4-.09-.67-.09h-.82v5.2ZM73.7,69.86h2.73c-.02-.36-.16-.65-.4-.88-.24-.23-.55-.34-.91-.34-.39,0-.71.11-.96.33-.25.22-.4.52-.45.9M73.62,70.58h3.94c-.01-.82-.23-1.46-.66-1.93-.43-.48-1-.71-1.72-.71-.79,0-1.43.26-1.94.78-.51.52-.76,1.18-.76,2s.28,1.44.82,1.96c.55.51,1.25.77,2.1.77.23,0,.48-.03.74-.08.26-.06.54-.14.85-.25l.57-.99c-.35.19-.68.32-.98.41-.3.09-.59.13-.86.13-.61,0-1.11-.19-1.49-.56-.38-.38-.58-.88-.61-1.52M78.36,73.26c.13-.11.22-.24.28-.39.05-.15.08-.34.08-.56v-5.45c0-.22-.03-.41-.08-.56-.06-.15-.15-.28-.28-.4h.09c.15,0,.32,0,.51-.03.19-.02.44-.05.75-.1v6.53c0,.22.03.41.08.56.06.15.15.28.28.39h-1.71ZM81.21,68.15c.05.07.09.14.12.21.02.06.04.12.04.17,0,.07-.03.17-.09.28-.06.12-.14.24-.25.36l-1.08,1.23,1.59,2.22c.18.25.33.41.46.5.13.09.28.13.44.13h1.03c-.06-.06-.14-.14-.25-.25-.3-.3-.47-.48-.52-.54l-1.67-2.16,1.76-2.16h-1.57ZM84.96,72.3c0,.22.03.41.09.56.06.15.15.28.28.39h-1.71c.13-.11.22-.24.28-.39.05-.15.08-.34.08-.56v-3.18c0-.23-.03-.42-.09-.57s-.15-.29-.28-.4h.11c.17,0,.35,0,.54-.03.19-.02.4-.05.63-.09l.05.81c.26-.28.53-.49.79-.62.26-.13.55-.2.85-.2.57,0,1.03.17,1.38.52.35.34.53.8.53,1.35v2.4c0,.22.03.41.08.56.06.15.15.28.28.39h-1.73c.13-.11.22-.24.28-.39.06-.15.09-.34.09-.56v-1.83c0-.56-.1-.96-.3-1.21-.2-.25-.52-.38-.95-.38s-.78.12-.98.35c-.2.23-.3.62-.3,1.17v1.9ZM90.69,70.55c0,.64.16,1.15.49,1.54.33.39.75.59,1.28.59.49,0,.9-.18,1.21-.53.31-.35.47-.8.47-1.36,0-.6-.17-1.09-.5-1.48-.33-.39-.76-.58-1.27-.58-.48,0-.88.17-1.2.52-.32.34-.47.78-.47,1.3M89.56,70.76c0-.38.07-.75.22-1.08.14-.34.36-.64.64-.91.27-.25.58-.45.94-.59.36-.14.73-.21,1.12-.21s.77.07,1.09.19c.33.13.62.33.88.59.26.26.46.55.59.87.14.33.21.66.21,1.02,0,.39-.07.75-.21,1.09-.14.34-.35.64-.63.9-.27.25-.58.44-.94.58-.36.14-.73.21-1.12.21s-.77-.06-1.09-.19c-.32-.13-.62-.32-.88-.59-.26-.26-.46-.55-.59-.88-.14-.33-.21-.66-.21-1.01M97.36,72.3c0,.22.03.41.09.56.06.15.15.28.28.39h-1.71c.13-.11.22-.24.28-.39.06-.15.08-.34.08-.56v-5.45c0-.22-.03-.41-.08-.56-.05-.15-.15-.28-.28-.4h.12c.11,0,.25,0,.41-.02.16-.02.44-.05.82-.1v6.53ZM99.56,70.55c0,.64.16,1.15.49,1.54.33.39.75.59,1.28.59.49,0,.9-.18,1.21-.53.31-.35.47-.8.47-1.36,0-.6-.17-1.09-.5-1.48-.33-.39-.76-.58-1.27-.58-.48,0-.88.17-1.2.52-.32.34-.47.78-.47,1.3M98.43,70.76c0-.38.07-.75.22-1.08.14-.34.36-.64.64-.91.27-.25.58-.45.94-.59.36-.14.73-.21,1.12-.21s.77.07,1.09.19c.33.13.62.33.88.59.26.26.46.55.59.87.14.32.2.66.2,1.02,0,.39-.07.75-.21,1.09-.14.34-.35.64-.63.9-.26.25-.58.44-.94.58-.36.14-.73.21-1.12.21-.41,0-.78-.06-1.1-.19-.32-.13-.62-.32-.88-.59-.26-.26-.46-.55-.59-.88-.14-.33-.21-.66-.21-1.01M108.44,69.94c0-.36-.13-.67-.39-.91-.26-.25-.58-.37-.97-.37-.36,0-.65.1-.87.3-.22.2-.33.47-.33.79,0,.37.13.68.4.93.27.25.59.38.97.38.34,0,.62-.11.85-.32.22-.21.34-.48.34-.81M110.37,67.92l-.33.82s-.06,0-.1,0c-.04,0-.1,0-.18,0-.15,0-.33,0-.53-.02-.2-.02-.42-.04-.68-.07.33.18.57.38.73.6.16.22.24.47.24.75,0,.33-.1.62-.3.88-.2.26-.49.46-.86.61-.3.12-.63.2-.98.24-.03,0-.04,0-.06,0h-.03c-.38.06-.57.16-.57.32,0,.08.03.13.09.16.06.03.16.05.29.05.11,0,.26,0,.43-.01.18,0,.29-.01.36-.01.73,0,1.33.15,1.78.44.45.29.68.67.68,1.13,0,.58-.29,1.06-.88,1.44-.59.37-1.34.56-2.28.56-.85,0-1.54-.15-2.1-.45-.55-.3-.83-.52-.83-.96,0-.25.1-.61.29-.77.2-.17.44-.25.74-.25.07,0,.15,0,.24.03.09.02.2.05.32.09-.15.02-.26.08-.34.17-.08.09-.12.22-.12.39,0,.31.19.58.57.81.38.23.85.34,1.4.34s1.01-.12,1.38-.37c.37-.25.55-.55.55-.9s-.16-.6-.48-.78c-.32-.18-.78-.27-1.38-.27-.05,0-.19,0-.42,0-.23,0-.44.01-.62.01-.28,0-.49-.05-.64-.15-.15-.1-.22-.24-.22-.43,0-.17.07-.32.22-.45.14-.12.36-.22.64-.28-.48-.1-.86-.31-1.14-.62-.28-.31-.42-.68-.42-1.11,0-.57.23-1.03.68-1.37.46-.34,1.08-.51,1.87-.51.2,0,.49,0,.87.03.38.02.66.03.84.03.15,0,.33,0,.54-.03.21-.02.45-.05.73-.09M110.82,66.79c0-.18.06-.33.19-.45.13-.13.28-.19.46-.19s.32.06.45.19c.12.12.18.28.18.45s-.06.33-.18.46c-.12.12-.27.19-.45.19s-.34-.06-.46-.19c-.12-.13-.19-.28-.19-.46M112,72.3c0,.22.03.41.09.56.06.15.15.28.28.39h-1.71c.13-.11.22-.24.28-.39.06-.15.09-.34.09-.56v-3.18c0-.23-.03-.42-.09-.57-.06-.15-.15-.29-.28-.4.3,0,.56-.02.78-.04.22-.02.4-.04.56-.08v4.26ZM67.78,83.01l-.35-1.32c.42.28.83.49,1.23.63.4.14.79.21,1.18.21.5,0,.9-.11,1.21-.32.3-.21.46-.49.46-.84,0-.1-.02-.2-.05-.29-.03-.1-.08-.19-.14-.28-.13-.2-.58-.48-1.34-.86-.19-.09-.34-.16-.45-.21-.71-.36-1.2-.68-1.46-.99-.26-.3-.39-.66-.39-1.07,0-.59.24-1.06.72-1.41.48-.35,1.14-.52,1.98-.52.24,0,.51.02.8.05.29.03.61.08.94.15v1.22c-.3-.23-.6-.4-.91-.51-.3-.11-.62-.17-.95-.17-.42,0-.75.09-1.01.27-.25.18-.38.41-.38.7,0,.26.1.48.3.68.2.2.64.46,1.34.79.04.02.1.05.18.08.59.27,1.03.52,1.31.75.22.17.39.37.51.61.12.24.18.5.18.77,0,.63-.29,1.16-.86,1.59-.57.43-1.29.65-2.15.65-.28,0-.57-.03-.89-.09-.32-.06-.66-.15-1.04-.27M74.65,79.78h2.73c-.02-.36-.15-.66-.4-.88-.24-.23-.55-.34-.91-.34-.39,0-.71.11-.97.33-.25.22-.4.52-.45.9M74.58,80.5c.03.64.23,1.14.61,1.52.38.38.87.56,1.49.56.27,0,.56-.05.86-.13.3-.09.63-.23.98-.41l-.57.98c-.3.11-.59.2-.85.25-.26.05-.51.08-.74.08-.85,0-1.55-.26-2.1-.77-.55-.51-.82-1.17-.82-1.96s.25-1.48.76-2c.51-.52,1.15-.78,1.94-.78.72,0,1.3.24,1.73.71.42.47.64,1.12.65,1.93h-3.94ZM79.32,85.41c.13-.11.22-.24.28-.39.05-.15.08-.34.08-.56v-5.41c0-.23-.03-.42-.09-.57-.06-.15-.15-.29-.28-.4h.13c.19,0,.38,0,.57-.03.19-.02.39-.05.59-.09l.05.81c.26-.29.55-.5.86-.64.31-.14.65-.21,1-.21.71,0,1.3.25,1.79.75.48.5.73,1.11.73,1.84,0,.48-.09.92-.28,1.31-.19.39-.46.72-.8.98-.23.17-.48.31-.73.39-.26.09-.54.13-.83.13-.12,0-.26-.01-.39-.03s-.27-.04-.41-.07l-.63-.92c.22.1.42.17.6.22.19.05.36.07.53.07.58,0,1.03-.17,1.35-.5.32-.34.49-.81.49-1.41s-.16-1.05-.48-1.42c-.32-.37-.73-.56-1.22-.56-.21,0-.41.04-.6.11-.19.07-.36.18-.51.32-.15.14-.26.32-.32.53-.06.21-.1.57-.1,1.07v3.73c0,.22.03.41.09.56.06.15.15.28.28.39h-1.73ZM89.68,82.49c-.26.28-.53.49-.79.62-.26.13-.55.2-.85.2-.56,0-1.02-.18-1.38-.52-.36-.35-.54-.8-.54-1.36v-2.38c0-.23-.03-.42-.09-.57-.06-.15-.15-.29-.28-.4h.15c.2,0,.41,0,.61-.03.2-.02.41-.05.6-.09v2.91c0,.55.11.96.3,1.21s.52.38.96.38.79-.12.98-.35c.2-.23.29-.63.29-1.18v-1.89c0-.23-.03-.42-.09-.57-.06-.15-.15-.29-.28-.4h.13c.19,0,.38,0,.58-.03.2-.02.42-.05.65-.09v4.13c0,.22.03.41.08.56.05.15.15.28.28.39h-.1c-.15,0-.32,0-.51.03-.18.02-.41.06-.68.1l-.05-.69ZM93.13,82.22c0,.22.03.41.09.56.06.15.15.28.27.39h-1.7c.13-.11.22-.24.28-.39.05-.15.08-.34.08-.56v-5.45c0-.22-.03-.41-.08-.56-.05-.15-.15-.28-.28-.4h.11c.12,0,.25,0,.41-.02.16-.02.44-.05.81-.1v6.53ZM98.15,82.49c-.26.28-.53.49-.79.62-.27.13-.55.2-.85.2-.56,0-1.02-.18-1.38-.52-.36-.35-.54-.8-.54-1.36v-2.38c0-.23-.03-.42-.09-.57-.06-.15-.15-.29-.28-.4h.15c.2,0,.41,0,.61-.03.2-.02.4-.05.6-.09v2.91c0,.55.11.96.31,1.21.2.25.52.38.95.38s.79-.12.98-.35c.2-.23.3-.63.3-1.18v-1.89c0-.23-.03-.42-.09-.57-.06-.15-.15-.29-.28-.4h.13c.19,0,.38,0,.58-.03.2-.02.42-.05.65-.09v4.13c0,.22.03.41.09.56.05.15.15.28.28.39h-.09c-.15,0-.32,0-.51.03-.19.02-.41.06-.68.1l-.05-.69ZM101.61,82.22v-1.91c0-.55.1-.94.29-1.17.2-.23.53-.35.98-.35s.76.13.96.38c.2.25.3.66.3,1.22v1.83c0,.22-.03.41-.09.56-.06.15-.15.28-.28.39h1.73c-.13-.11-.22-.24-.28-.39s-.08-.34-.08-.56v-2.4c0-.55-.18-1.01-.53-1.35-.35-.34-.82-.52-1.38-.52-.3,0-.58.07-.85.2-.27.13-.53.34-.79.62v-3.08c-.27.04-.5.07-.7.09-.21.02-.38.03-.53.03h-.09c.13.11.22.24.28.4.05.15.08.34.08.56v5.45c0,.22-.03.41-.08.56-.06.15-.15.28-.28.39h1.71c-.12-.11-.22-.24-.28-.39s-.09-.34-.09-.56M116.65,75.89c-.16.14-.27.29-.33.47-.06.17-.1.45-.1.81v6.17c-.25,0-.5-.09-.73-.25-.23-.16-.51-.46-.86-.9l-3.76-4.74v4.43c0,.38.03.66.1.83s.62-.12.77.01l-2.1.45c.15-.14.26-.3.33-.47.06-.18.1-.45.1-.82v-4.71c0-.37-.04-.64-.1-.81-.07-.17-.18-.33-.33-.47h1.48l4.31,5.47v-4.19c0-.37-.04-.64-.1-.81-.07-.18-.18-.33-.33-.47h1.65ZM118.72,80.47c0,.64.16,1.15.49,1.54.33.39.75.59,1.28.59.5,0,.9-.18,1.21-.53.31-.35.47-.81.47-1.36,0-.6-.17-1.09-.5-1.48-.33-.39-.76-.58-1.27-.58-.48,0-.88.17-1.2.52-.32.34-.47.78-.47,1.3M117.59,80.69c0-.38.07-.75.22-1.08.14-.34.35-.64.64-.91.27-.25.58-.45.94-.59.36-.14.73-.21,1.12-.21s.77.06,1.09.19c.33.13.62.33.88.59.26.26.46.55.59.87.14.33.21.66.21,1.01,0,.39-.07.75-.22,1.09-.14.34-.35.64-.63.9-.26.25-.58.44-.94.58-.36.14-.73.21-1.12.21-.41,0-.78-.06-1.1-.19-.32-.13-.62-.32-.88-.59-.26-.26-.46-.55-.59-.88-.14-.33-.21-.66-.21-1.01M124.03,85.41c.13-.11.22-.24.28-.39.05-.15.08-.34.08-.56v-5.41c0-.23-.03-.42-.09-.57-.06-.15-.15-.29-.28-.4h.13c.19,0,.38,0,.57-.03.19-.02.39-.05.59-.09l.05.81c.26-.29.55-.5.86-.64s.65-.21,1-.21c.71,0,1.3.25,1.79.75.49.5.73,1.11.73,1.84,0,.48-.09.92-.28,1.31-.19.39-.46.72-.8.98-.23.17-.48.31-.73.39-.26.09-.54.13-.83.13-.12,0-.26-.01-.39-.03-.13-.02-.27-.04-.41-.07l-.63-.92c.22.1.42.17.6.22.19.05.36.07.52.07.58,0,1.03-.17,1.35-.5.33-.34.49-.81.49-1.41s-.16-1.05-.48-1.42c-.32-.37-.73-.56-1.22-.56-.21,0-.41.04-.6.11-.19.07-.36.18-.51.32-.15.14-.26.32-.32.53-.06.21-.1.57-.1,1.07v3.73c0,.22.03.41.09.56.06.15.15.28.28.39h-1.72ZM131.66,79.78h2.73c-.02-.36-.15-.66-.4-.88-.24-.23-.55-.34-.91-.34-.39,0-.72.11-.97.33-.25.22-.4.52-.45.9M131.59,80.5c.03.64.22,1.14.6,1.52.38.38.88.56,1.49.56.27,0,.56-.05.86-.13.3-.09.63-.23.98-.41l-.57.98c-.3.11-.59.2-.85.25-.26.05-.51.08-.74.08-.85,0-1.55-.26-2.1-.77-.55-.51-.82-1.17-.82-1.96s.25-1.48.76-2c.51-.52,1.15-.78,1.94-.78.72,0,1.3.24,1.73.71.43.47.64,1.12.65,1.93h-3.94ZM137.68,82.22c0,.22.03.41.09.56.06.15.15.28.28.39h-1.71c.13-.11.22-.24.28-.39.06-.15.09-.34.09-.56v-3.18c0-.23-.03-.42-.09-.57-.06-.15-.15-.29-.28-.4h.12c.17,0,.35,0,.54-.03.19-.02.4-.05.63-.09l.04.81c.26-.28.52-.48.79-.61.27-.13.55-.2.85-.2.36,0,.68.07.96.22.29.15.54.37.78.67.32-.31.62-.53.91-.68.29-.14.58-.21.88-.21.56,0,1.02.17,1.37.51.35.34.53.79.53,1.35v2.4c0,.22.03.41.09.56s.15.28.28.39h-1.72c.13-.11.22-.24.28-.39.06-.15.09-.34.09-.56v-1.83c0-.56-.1-.96-.3-1.21-.2-.25-.52-.38-.96-.38s-.78.12-.98.35c-.2.23-.3.62-.3,1.17v1.9c0,.22.03.41.09.56.05.15.15.28.28.39h-1.73c.13-.11.22-.24.28-.39.06-.15.09-.34.09-.56v-1.83c0-.56-.1-.96-.3-1.21-.2-.25-.52-.38-.96-.38s-.78.12-.98.35c-.2.23-.3.62-.3,1.17v1.9ZM147.23,82.37c.14.08.28.13.42.17.14.04.3.06.46.06.59,0,1.06-.18,1.4-.53.34-.35.52-.83.52-1.43,0-.55-.14-.99-.42-1.32-.28-.34-.65-.51-1.11-.51-.13,0-.27.02-.42.06-.15.04-.33.09-.52.16l.55-.98c.12-.02.22-.03.31-.04.09,0,.18-.01.26-.01.73,0,1.32.23,1.76.69.44.46.66,1.08.66,1.85,0,.87-.29,1.56-.86,2.07-.57.51-1.34.77-2.31.77-.26,0-.56-.02-.9-.07-.34-.04-.73-.11-1.16-.19.12-.11.22-.24.28-.4.06-.15.09-.34.09-.57v-5.5c0-.23-.03-.42-.09-.57-.06-.15-.15-.28-.28-.4h1.36v6.68ZM153.01,79.78h2.73c-.02-.36-.15-.66-.4-.88-.24-.23-.55-.34-.91-.34-.39,0-.71.11-.96.33-.25.22-.4.52-.45.9M152.94,80.5c.02.64.22,1.14.6,1.52.38.38.88.56,1.49.56.27,0,.56-.05.86-.13.3-.09.63-.23.98-.41l-.57.98c-.3.11-.59.2-.85.25-.26.05-.51.08-.74.08-.85,0-1.55-.26-2.1-.77-.55-.51-.82-1.17-.82-1.96s.25-1.48.76-2c.51-.52,1.15-.78,1.94-.78.72,0,1.3.24,1.73.71.43.47.64,1.12.65,1.93h-3.94ZM160.69,79.03c-.08-.06-.16-.1-.25-.13-.08-.03-.17-.04-.28-.04-.37,0-.65.13-.85.38-.19.25-.29.61-.29,1.08v1.9c0,.22.03.41.09.56.06.15.15.28.28.39h-1.71c.13-.11.22-.24.28-.39.05-.15.08-.34.08-.56v-3.18c0-.23-.03-.42-.09-.57-.06-.15-.15-.29-.28-.4h.12c.17,0,.35,0,.54-.03.19-.02.4-.05.62-.09l.08.81c.15-.27.33-.47.53-.6.2-.13.43-.2.68-.2.06,0,.12,0,.19.01.07,0,.15.02.25.04v1.01Z" />
      <path class="cls-1"
        d="M72.87,33.25h-5.43c.77.2,1.14.8,1.14,1.98v16.06c0,1.18-.37,1.78-1.14,1.98h6.57c-.77-.2-1.14-.8-1.14-1.98v-18.05ZM97.6,40.61c1.82.51,5.58,1.17,7.11,3.27,1.74,2.39,1.21,5.97-1.07,7.79-1.73,1.38-3.58,1.86-6.29,1.89-2.71.03-4.6-.6-5.92-.91l-1.01-3.99c2.37.8,5.24,1.34,7.52,1.32,2.28-.02,3.36-.72,3.65-2.05.57-2.63-3.95-3.12-5.5-3.52-3.33-.84-5.87-2.19-5.42-5.99.05-.42.14-.83.28-1.22h-6.71v14.12c0,1.18.37,1.78,1.13,1.98h-6.55c.77-.2,1.14-.8,1.14-1.98v-14.12h-11.37l4.28-3.94h32.87s-3.55,3.95-3.55,3.95h-5.22c-1.63,0-2.24.66-2.24,1.62,0,.95.99,1.27,2.87,1.79" />
    </g>
  </g>
</svg>
