<svg width="1838" height="579" viewBox="0 0 1838 579" fill="none" xmlns="http://www.w3.org/2000/svg">
  <path
    d="M132 433C103.2 433 81.8 425.2 67.8 409.6C53.8 394 46.8 370.2 46.8 338.2V162.4H0L0.6 116.8H30C40 116.8 47.2 115 51.6 111.4C56.4 107.8 59.2 101.8 60 93.3999L66 46.5999H99.6V116.8H189V163H99.6V337C99.6 353 103.2 364.6 110.4 371.8C118 378.6 128.8 382 142.8 382C150.4 382 158.2 381 166.2 379C174.6 377 182.8 373 190.8 367V421.6C179.2 426 168.4 429 158.4 430.6C148.8 432.2 140 433 132 433Z"
    fill="currentColor" />
  <path
    d="M281.456 434.8C264.656 434.8 249.456 431.6 235.856 425.2C222.256 418.4 211.456 408.6 203.456 395.8C195.456 382.6 191.456 366 191.456 346C191.456 331.2 194.056 318.2 199.256 307C204.856 295.8 213.256 286.2 224.456 278.2C236.056 270.2 250.856 263.6 268.856 258.4C286.856 253.2 308.856 248.8 334.856 245.2C349.656 243.2 361.656 241.2 370.856 239.2C380.456 237.2 387.456 234 391.856 229.6C396.256 224.8 398.456 217.8 398.456 208.6C398.456 193.4 393.256 180.6 382.856 170.2C372.456 159.8 356.056 154.6 333.656 154.6C322.056 154.6 310.256 156.6 298.256 160.6C286.256 164.6 275.656 171.4 266.456 181C257.656 190.2 252.056 203.2 249.656 220L199.256 203.2C202.456 188.8 207.656 175.8 214.856 164.2C222.456 152.6 232.056 142.8 243.656 134.8C255.256 126.4 268.656 120 283.856 115.6C299.456 111.2 316.656 109 335.456 109C361.456 109 383.056 113.4 400.256 122.2C417.856 131 430.856 144.6 439.256 163C448.056 181 452.456 204.2 452.456 232.6V301.6C452.456 314 452.656 327.6 453.056 342.4C453.856 356.8 454.856 371.4 456.056 386.2C457.256 400.6 458.456 414.2 459.656 427H409.256C408.056 414.2 406.856 401.4 405.656 388.6C404.856 375.8 404.256 363 403.856 350.2H396.056C390.056 365 382.056 378.8 372.056 391.6C362.056 404.4 349.456 414.8 334.256 422.8C319.456 430.8 301.856 434.8 281.456 434.8ZM297.656 390.4C306.456 390.4 315.256 389 324.056 386.2C333.256 383.4 342.256 378.8 351.056 372.4C360.256 366 368.856 357.8 376.856 347.8C385.256 337.8 392.656 325.8 399.056 311.8V251.8L414.656 254.8C408.256 261.2 399.656 266 388.856 269.2C378.456 272.4 366.856 275 354.056 277C341.256 279 328.456 281.2 315.656 283.6C302.856 285.6 291.056 288.8 280.256 293.2C269.856 297.2 261.456 303 255.056 310.6C248.656 318.2 245.456 328.6 245.456 341.8C245.456 357.8 250.256 370 259.856 378.4C269.456 386.4 282.056 390.4 297.656 390.4Z"
    fill="currentColor" />
  <path
    d="M496.041 427V116.8H545.241L539.841 215.2H550.041C555.641 190.8 563.041 170.8 572.241 155.2C581.841 139.6 593.841 128 608.241 120.4C622.641 112.8 639.441 109 658.641 109C693.041 109 719.041 121.4 736.641 146.2C754.641 170.6 763.641 207.2 763.641 256V427H708.441V260.8C708.441 225.6 702.841 199.6 691.641 182.8C680.841 166 664.841 157.6 643.641 157.6C624.441 157.6 608.041 163.6 594.441 175.6C581.241 187.6 570.841 203.4 563.241 223C555.641 242.6 551.441 263.8 550.641 286.6V427H496.041Z"
    fill="currentColor" />
  <path
    d="M912.375 531.4C895.975 531.4 879.775 529.4 863.775 525.4C848.175 521.8 833.775 516.2 820.575 508.6C807.375 501 796.575 491.2 788.175 479.2L815.775 439.6C824.975 453.2 837.975 463.6 854.775 470.8C871.575 478 889.975 481.6 909.975 481.6C932.375 481.6 950.975 476.6 965.775 466.6C980.975 457 992.375 442 999.975 421.6C1007.58 400.8 1011.58 375 1011.98 344.2L1018.58 281.8H1007.17C1002.78 311 995.775 334.4 986.175 352C976.975 369.2 965.375 381.6 951.375 389.2C937.775 396.8 921.975 400.6 903.975 400.6C881.575 400.6 862.575 395 846.975 383.8C831.775 372.2 820.175 355.4 812.175 333.4C804.175 311 800.175 283.8 800.175 251.8V116.8H854.775V239.8C854.775 278.6 860.175 307.2 870.975 325.6C882.175 343.6 898.775 352.6 920.775 352.6C932.775 352.6 943.575 349.6 953.175 343.6C962.775 337.6 970.975 328.8 977.775 317.2C984.975 305.6 990.575 291 994.575 273.4C998.975 255.4 1001.77 234.6 1002.97 211V116.8H1057.58V347.2C1057.58 371.6 1055.78 393.6 1052.18 413.2C1048.58 432.8 1042.78 449.8 1034.78 464.2C1027.18 479 1017.58 491.4 1005.98 501.4C994.375 511.4 980.775 518.8 965.175 523.6C949.575 528.8 931.975 531.4 912.375 531.4Z"
    fill="currentColor" />
  <path
    d="M1175.15 434.8C1158.35 434.8 1143.15 431.6 1129.55 425.2C1115.95 418.4 1105.15 408.6 1097.15 395.8C1089.15 382.6 1085.15 366 1085.15 346C1085.15 331.2 1087.75 318.2 1092.95 307C1098.55 295.8 1106.95 286.2 1118.15 278.2C1129.75 270.2 1144.55 263.6 1162.55 258.4C1180.55 253.2 1202.55 248.8 1228.55 245.2C1243.35 243.2 1255.35 241.2 1264.55 239.2C1274.15 237.2 1281.15 234 1285.55 229.6C1289.95 224.8 1292.15 217.8 1292.15 208.6C1292.15 193.4 1286.95 180.6 1276.55 170.2C1266.15 159.8 1249.75 154.6 1227.35 154.6C1215.75 154.6 1203.95 156.6 1191.95 160.6C1179.95 164.6 1169.35 171.4 1160.15 181C1151.35 190.2 1145.75 203.2 1143.35 220L1092.95 203.2C1096.15 188.8 1101.35 175.8 1108.55 164.2C1116.15 152.6 1125.75 142.8 1137.35 134.8C1148.95 126.4 1162.35 120 1177.55 115.6C1193.15 111.2 1210.35 109 1229.15 109C1255.15 109 1276.75 113.4 1293.95 122.2C1311.55 131 1324.55 144.6 1332.95 163C1341.75 181 1346.15 204.2 1346.15 232.6V301.6C1346.15 314 1346.35 327.6 1346.75 342.4C1347.55 356.8 1348.55 371.4 1349.75 386.2C1350.95 400.6 1352.15 414.2 1353.35 427H1302.95C1301.75 414.2 1300.55 401.4 1299.35 388.6C1298.55 375.8 1297.95 363 1297.55 350.2H1289.75C1283.75 365 1275.75 378.8 1265.75 391.6C1255.75 404.4 1243.15 414.8 1227.95 422.8C1213.15 430.8 1195.55 434.8 1175.15 434.8ZM1191.35 390.4C1200.15 390.4 1208.95 389 1217.75 386.2C1226.95 383.4 1235.95 378.8 1244.75 372.4C1253.95 366 1262.55 357.8 1270.55 347.8C1278.95 337.8 1286.35 325.8 1292.75 311.8V251.8L1308.35 254.8C1301.95 261.2 1293.35 266 1282.55 269.2C1272.15 272.4 1260.55 275 1247.75 277C1234.95 279 1222.15 281.2 1209.35 283.6C1196.55 285.6 1184.75 288.8 1173.95 293.2C1163.55 297.2 1155.15 303 1148.75 310.6C1142.35 318.2 1139.15 328.6 1139.15 341.8C1139.15 357.8 1143.95 370 1153.55 378.4C1163.15 386.4 1175.75 390.4 1191.35 390.4Z"
    fill="currentColor" />
  <path
    d="M1399.24 434.2C1386.44 434.2 1376.84 431.4 1370.44 425.8C1364.04 420.2 1360.84 411.2 1360.84 398.8C1360.84 386.8 1364.04 378 1370.44 372.4C1376.84 366.8 1386.44 364 1399.24 364C1412.44 364 1422.24 366.8 1428.64 372.4C1435.44 378 1438.84 387 1438.84 399.4C1438.84 422.6 1425.64 434.2 1399.24 434.2Z"
    fill="url(#paint0_linear_30_73)" />
  <path
    d="M1451.91 427V116.8H1506.51V427H1451.91ZM1479.51 62.7999C1466.71 62.7999 1457.11 60.1999 1450.71 54.9999C1444.31 49.7999 1441.11 41.9999 1441.11 31.5999C1441.11 21.1999 1444.31 13.3999 1450.71 8.19991C1457.11 2.9999 1466.51 0.399902 1478.91 0.399902C1491.71 0.399902 1501.31 2.9999 1507.71 8.19991C1514.11 13.3999 1517.31 21.1999 1517.31 31.5999C1517.31 41.5999 1514.11 49.3999 1507.71 54.9999C1501.31 60.1999 1491.91 62.7999 1479.51 62.7999Z"
    fill="currentColor" />
  <path
    d="M1553.31 427V116.8H1602.51L1597.11 215.2C1602.71 190.8 1610 171.5 1625 154.5C1640 137.5 1651.11 128 1665.51 120.4C1679.91 112.8 1704.3 105.5 1723.5 105.5C1757.9 105.5 1789.4 116.2 1807 141C1841 175.6 1840 228.5 1834 260C1834.55 265.055 1815.39 322.479 1784.15 351.5C1752.9 380.521 1739.22 386.184 1716.5 410C1693.78 433.816 1711.5 480 1710.5 480C1709.5 480 1669 480 1669 480C1669 480 1648 434 1671 401.716C1694 369.433 1726 347.5 1740.5 336.5C1755 325.5 1782.5 293.5 1787.5 256.5C1792.5 219.5 1789 197 1776.5 177.5C1765 162.5 1737.11 157 1715.91 157C1696.71 157 1672.1 165.5 1658.5 177.5C1645.3 189.5 1630.1 212.9 1622.5 232.5C1614.9 252.1 1608.71 263.8 1607.91 286.6V427H1553.31Z"
    fill="currentColor" />
  <path
    d="M1659.4 570.4C1665.8 576 1675.4 578.8 1688.2 578.8C1714.6 578.8 1727.8 567.2 1727.8 544C1727.8 531.6 1724.4 522.6 1717.6 517C1711.2 511.4 1701.4 508.6 1688.2 508.6C1675.4 508.6 1665.8 511.4 1659.4 517C1653 522.6 1649.8 531.6 1649.8 544C1649.8 556 1653 564.8 1659.4 570.4Z"
    fill="#007EC1" />
  <defs>
    <linearGradient id="paint0_linear_30_73" x1="143.5" y1="796" x2="1837.24" y2="289.6"
      gradientUnits="userSpaceOnUse">
      <stop offset="0.724526" stop-color="#007EC1" />
      <stop offset="0.758289" stop-color="#007EC1" />
    </linearGradient>
  </defs>
</svg>
